<svg xmlns="http://www.w3.org/2000/svg" viewBox="0 0 360 660">
  <defs>
    <radialGradient id="puff" cx="50%" cy="50%" r="60%">
      <stop offset="0%" stop-color="#4d2f7f" stop-opacity=".85"/>
      <stop offset="55%" stop-color="#7152a5" stop-opacity=".45"/>
      <stop offset="100%" stop-color="#7b93d1" stop-opacity=".12"/>
    </radialGradient>
    <filter id="soft"><feGaussianBlur stdDeviation=".25"/></filter>
    <style>
      .line{stroke:#4d2f7f;stroke-width:1.4;stroke-linecap:round;opacity:.65}
      .line2{stroke:#7b93d1;stroke-width:1.2;stroke-linecap:round;opacity:.55}
      .tip{fill:#fff;stroke:#d8c7f0;stroke-width:.8;opacity:.9}
    </style>
  </defs>
  <path d="M135 650 C132 520 148 400 180 255" fill="none" stroke="#7b744b" stroke-width="5" stroke-linecap="round"/>
  <circle cx="185" cy="215" r="9" fill="#5b3b2a"/>
  <g filter="url(#soft)">
    <circle cx="185" cy="215" r="120" fill="url(#puff)" opacity=".18"/>
    <g>
      <line class="line" x1="185" y1="215" x2="185" y2="70"/><circle class="tip" cx="185" cy="67" r="4"/>
      <line class="line2" x1="185" y1="215" x2="250" y2="89"/><circle class="tip" cx="252" cy="86" r="4"/>
      <line class="line" x1="185" y1="215" x2="315" y2="150"/><circle class="tip" cx="318" cy="148" r="4"/>
      <line class="line2" x1="185" y1="215" x2="330" y2="225"/><circle class="tip" cx="333" cy="225" r="4"/>
      <line class="line" x1="185" y1="215" x2="300" y2="305"/><circle class="tip" cx="303" cy="307" r="4"/>
      <line class="line2" x1="185" y1="215" x2="215" y2="355"/><circle class="tip" cx="216" cy="359" r="4"/>
      <line class="line" x1="185" y1="215" x2="125" y2="345"/><circle class="tip" cx="123" cy="348" r="4"/>
      <line class="line2" x1="185" y1="215" x2="55" y2="285"/><circle class="tip" cx="52" cy="287" r="4"/>
      <line class="line" x1="185" y1="215" x2="40" y2="200"/><circle class="tip" cx="37" cy="200" r="4"/>
      <line class="line2" x1="185" y1="215" x2="65" y2="125"/><circle class="tip" cx="62" cy="123" r="4"/>
      <line class="line" x1="185" y1="215" x2="125" y2="82"/><circle class="tip" cx="123" cy="79" r="4"/>
      <line class="line2" x1="185" y1="215" x2="225" y2="75"/><circle class="tip" cx="226" cy="72" r="4"/>
    </g>
  </g>
</svg>
